<svg width="44" height="50" viewBox="0 0 44 50" fill="none" xmlns="http://www.w3.org/2000/svg">
<path d="M4.39916 17.2353C4.39618 17.2375 4.39264 17.2389 4.38893 17.2392C4.38522 17.2395 4.38149 17.2388 4.37816 17.2372C4.37483 17.2355 4.37203 17.233 4.37007 17.2298C4.36811 17.2266 4.36707 17.223 4.36707 17.2192V3.34547C4.36701 3.33905 4.36908 3.33276 4.37299 3.32755C4.3769 3.32235 4.38242 3.3185 4.38873 3.3166C9.83043 1.60109 15.3547 0.541471 20.9617 0.137729C24.8825 -0.144624 29.0761 -0.0194907 32.9865 0.762593C37.3919 1.64414 42.6828 3.84681 43.46 8.94519C43.691 10.4602 43.4916 11.8781 42.8616 13.1989C42.0154 14.9708 40.4881 16.4307 38.867 17.597C36.6627 19.1837 34.0205 20.5714 31.6133 21.7112C29.079 22.9117 27.4809 23.6665 26.8189 23.9756C24.6911 24.9698 22.8181 25.9377 21.1999 26.8794C19.9448 27.6099 18.7975 28.4147 17.758 29.2938C17.0547 29.8885 16.436 30.5564 15.9018 31.2976C14.6705 33.0069 14.0649 35.528 15.2898 37.4138C16.2026 38.8184 17.8093 39.5403 19.4577 39.6638C23.6103 39.9751 27.3507 37.1122 30.0154 34.231C32.255 31.8101 34.1673 29.062 35.8333 26.2136C37.0788 24.0847 38.2151 21.8973 39.2424 19.6513C39.2486 19.6381 39.2584 19.627 39.2706 19.6192C39.2828 19.6114 39.297 19.6072 39.3114 19.6072H42.5536C42.5611 19.6072 42.5682 19.6102 42.5735 19.6154C42.5787 19.6207 42.5817 19.6278 42.5817 19.6353V48.9983C42.5817 49.0066 42.5783 49.0146 42.5723 49.0204C42.5663 49.0263 42.5581 49.0296 42.5496 49.0296H28.2732C28.2674 49.0295 28.2618 49.0282 28.2566 49.0256C28.2515 49.023 28.247 49.0193 28.2435 49.0148C28.2401 49.0102 28.2377 49.0049 28.2365 48.9993C28.2354 48.9936 28.2356 48.9878 28.2371 48.9823C28.5611 47.7775 28.9836 46.6272 29.5044 45.5315C30.329 43.7973 31.2801 42.008 32.3577 40.1636C34.1887 37.0288 35.3592 35.0179 35.8694 34.1307C37.2475 31.7331 38.6424 29.0901 39.7566 26.4558C39.7581 26.4521 39.7589 26.448 39.7588 26.4439C39.7588 26.4398 39.7579 26.4358 39.7562 26.4321C39.7546 26.4283 39.7522 26.4249 39.7492 26.4221C39.7463 26.4193 39.7428 26.4172 39.7389 26.4157L38.5397 25.9858C38.5235 25.98 38.5057 25.9805 38.4898 25.9872C38.4739 25.9939 38.4611 26.0062 38.4539 26.0219C36.91 29.2914 35.2122 32.3748 33.3603 35.2721C32.201 37.0855 30.9705 38.7823 29.6689 40.3625C26.0889 44.7109 21.4398 48.6454 15.731 49.7058C13.3855 50.1416 11.0657 50.0932 8.77161 49.5606C7.75209 49.324 6.58819 48.894 5.67616 48.3831C2.91948 46.8392 1.1612 44.5221 0.401306 41.4318C-0.197089 38.9989 -0.138533 36.2307 0.659594 33.8507C2.36173 28.7684 7.10557 25.5695 11.7211 23.3981C12.9558 22.8174 14.1302 22.3144 15.2441 21.8893C17.6264 20.9797 20.1341 20.1246 22.7673 19.324C25.2427 18.5711 27.321 17.9355 29.0023 17.4174C30.8542 16.8462 32.5732 16.2454 34.1593 15.615C35.2491 15.1818 36.2732 14.6759 37.2314 14.0973C38.3119 13.4452 39.4574 12.461 39.7927 11.212C40.5178 8.51605 37.4753 7.48691 35.498 7.17247C32.7732 6.73932 29.9328 6.94146 27.2007 7.39867C24.8959 7.78423 22.6168 8.3452 20.3633 9.08156C14.6184 10.9596 9.29701 13.6775 4.39916 17.2353Z" fill="#E2DADA"/>
</svg>
