<svg width="50" height="50" viewBox="0 0 50 50" fill="none" xmlns="http://www.w3.org/2000/svg">
<g clip-path="url(#clip0_38_49)">
<rect width="50" height="50" fill="#16002F"/>
<path d="M38.2812 0H11.7188C5.24666 0 0 5.24666 0 11.7188V38.2812C0 44.7533 5.24666 50 11.7188 50H38.2812C44.7533 50 50 44.7533 50 38.2812V11.7188C50 5.24666 44.7533 0 38.2812 0Z" fill="white"/>
<path d="M20.6953 5.27813L28.9807 5.27344C30.8578 8.57871 32.4404 12.0621 33.79 15.6361C34.3299 16.9639 34.8754 18.2918 35.3133 19.6613C35.9688 21.6674 36.7951 23.6074 37.4219 25.625C38.6531 29.8715 39.741 34.1627 40.8346 38.4494C41.2424 40.1566 41.807 41.8164 42.1746 43.5338C41.5949 43.7305 41.0123 43.9203 40.4338 44.1229C39.7838 44.3385 39.0938 44.3168 38.4203 44.3772C37.4563 44.475 36.4881 44.5381 35.5227 44.6244L33.1979 42.9518C33.0918 42.1799 33.1084 41.391 32.9691 40.6223C32.574 38.1576 31.9541 35.7377 31.249 33.3508L18.3223 35.2232C18.2258 35.765 18.1254 36.3082 18.0273 36.8514C17.5951 38.777 17.7039 40.7717 17.5881 42.7332L14.6354 44.6346C14.4453 44.7867 14.1975 44.7033 13.9811 44.7006C13.2512 44.6244 12.5172 44.6273 11.79 44.5354C11.049 44.4391 10.2557 44.577 9.56289 44.2264C8.9832 43.9447 8.38535 43.7033 7.8125 43.4059C8.47227 40.1336 9.34961 36.9133 10.2047 33.6914C11.2611 29.6719 12.5254 25.7156 13.827 21.7768C15.6504 16.083 17.967 10.5619 20.6953 5.27773V5.27813ZM24.2857 16.8791C23.2102 20.1355 21.965 23.3258 20.8137 26.5535L27.6889 22.6016C27.0195 20.6543 26.3447 18.71 25.6367 16.7785C25.502 16.4523 25.3668 16.0313 24.9949 15.9393C24.5529 15.9939 24.4234 16.5127 24.2857 16.8791Z" fill="#16002F"/>
</g>
<defs>
<clipPath id="clip0_38_49">
<rect width="50" height="50" fill="white"/>
</clipPath>
</defs>
</svg>
