<svg width="50" height="50" viewBox="0 0 50 50" fill="none" xmlns="http://www.w3.org/2000/svg">
<path d="M25 4.16663H17.7084C15.7745 4.16663 13.9198 4.93485 12.5524 6.30231C11.1849 7.66976 10.4167 9.52442 10.4167 11.4583C10.4167 13.3922 11.1849 15.2468 12.5524 16.6143C13.9198 17.9817 15.7745 18.75 17.7084 18.75H25M25 4.16663V18.75M25 4.16663H32.2917C33.2492 4.16663 34.1974 4.35523 35.0821 4.72167C35.9668 5.08811 36.7706 5.62521 37.4477 6.30231C38.1248 6.9794 38.6619 7.78323 39.0283 8.66789C39.3947 9.55256 39.5834 10.5007 39.5834 11.4583C39.5834 12.4158 39.3947 13.364 39.0283 14.2487C38.6619 15.1334 38.1248 15.9372 37.4477 16.6143C36.7706 17.2914 35.9668 17.8285 35.0821 18.1949C34.1974 18.5614 33.2492 18.75 32.2917 18.75H25" stroke="white" stroke-width="2" stroke-linecap="round" stroke-linejoin="round"/>
<path d="M17.7084 33.3333C15.7745 33.3333 13.9198 34.1016 12.5524 35.469C11.1849 36.8365 10.4167 38.6911 10.4167 40.625C10.4167 42.5589 11.1849 44.4135 12.5524 45.781C13.9198 47.1484 15.7745 47.9167 17.7084 47.9167C19.6422 47.9167 21.4969 47.1484 22.8643 45.781C24.2318 44.4135 25 42.5589 25 40.625V33.3333M17.7084 33.3333H25M17.7084 33.3333C15.7745 33.3333 13.9198 32.5651 12.5524 31.1977C11.1849 29.8302 10.4167 27.9755 10.4167 26.0417C10.4167 24.1078 11.1849 22.2531 12.5524 20.8857C13.9198 19.5182 15.7745 18.75 17.7084 18.75H25V33.3333M25 26.0417C25 25.0841 25.1886 24.1359 25.5551 23.2513C25.9215 22.3666 26.4586 21.5628 27.1357 20.8857C27.8128 20.2086 28.6166 19.6715 29.5013 19.305C30.386 18.9386 31.3341 18.75 32.2917 18.75C33.2492 18.75 34.1974 18.9386 35.0821 19.305C35.9668 19.6715 36.7706 20.2086 37.4477 20.8857C38.1248 21.5628 38.6619 22.3666 39.0283 23.2513C39.3947 24.1359 39.5834 25.0841 39.5834 26.0417C39.5834 26.9992 39.3947 27.9474 39.0283 28.8321C38.6619 29.7167 38.1248 30.5206 37.4477 31.1977C36.7706 31.8747 35.9668 32.4118 35.0821 32.7783C34.1974 33.1447 33.2492 33.3333 32.2917 33.3333C31.3341 33.3333 30.386 33.1447 29.5013 32.7783C28.6166 32.4118 27.8128 31.8747 27.1357 31.1977C26.4586 30.5206 25.9215 29.7167 25.5551 28.8321C25.1886 27.9474 25 26.9992 25 26.0417Z" stroke="white" stroke-width="2" stroke-linecap="round" stroke-linejoin="round"/>
</svg>
