<svg width="40" height="40" viewBox="0 0 40 40" fill="none" xmlns="http://www.w3.org/2000/svg">
<path fill-rule="evenodd" clip-rule="evenodd" d="M19.9884 0C15.2233 0.00269432 10.6211 1.73668 7.03633 4.87996C3.40207 8.07051 1.00312 12.4382 0.258657 17.2199C-0.502266 22.0216 0.427738 26.9389 2.88943 31.1297C5.31576 35.2702 9.14208 38.4046 13.6762 39.9657C14.6829 40.1557 15.0405 39.5197 15.0405 38.9777C15.0405 38.4877 15.0205 36.8737 15.0125 35.1617C9.45936 36.4017 8.28879 32.7417 8.28879 32.7417C7.9293 31.5097 7.14323 30.4461 6.07152 29.7418C4.25974 28.4678 6.21135 28.4998 6.21135 28.4998C6.84457 28.5878 7.44982 28.8258 7.97917 29.1918C8.51052 29.5578 8.95198 30.0438 9.27159 30.6117C9.54125 31.1177 9.90681 31.5637 10.3463 31.9217C11.0008 32.4637 11.8054 32.7919 12.6519 32.8619C13.4983 32.932 14.3459 32.7407 15.0805 32.3137C15.1703 31.2737 15.6198 30.3018 16.3489 29.5738C11.9163 29.0558 7.25207 27.2978 7.25207 19.4338C7.22118 17.4061 7.95681 15.4415 9.31154 13.9339C8.70028 12.1641 8.76864 10.23 9.5033 8.50793C9.5033 8.50793 11.1792 7.95793 14.9946 10.6079C18.2633 9.68947 21.7215 9.68947 24.9903 10.6079C28.7976 7.95793 30.4636 8.50793 30.4636 8.50793C31.2027 10.2239 31.2746 12.1639 30.6653 13.9339C32.0186 15.4421 32.7528 17.4066 32.7208 19.4338C32.7208 27.3118 28.0485 29.0438 23.604 29.5498C24.0837 30.0512 24.4524 30.6483 24.6861 31.302C24.9198 31.9557 25.0132 32.6514 24.9603 33.3437C24.9603 36.0877 24.9363 38.2977 24.9363 38.9717C24.9363 39.5157 25.2959 40.1557 26.3087 39.9557C30.8348 38.3881 34.6521 35.2521 37.0714 31.1137C39.5287 26.9265 40.4559 22.0142 39.6942 17.2179C38.9491 12.4406 36.5525 8.07691 32.9225 4.88796C29.3441 1.74631 24.7497 0.00974732 19.9904 0H19.9884Z" fill="#E2DADA"/>
</svg>
