<svg width="36" height="29" viewBox="0 0 36 29" fill="none" xmlns="http://www.w3.org/2000/svg">
<path d="M32.25 25.0833H28.6667V9.40625L17.9167 16.125L7.16667 9.40625V25.0833H3.58333V3.58333H5.73333L17.9167 11.1979L30.1 3.58333H32.25M32.25 0H3.58333C1.59458 0 0 1.59458 0 3.58333V25.0833C0 26.0337 0.377529 26.9451 1.04953 27.6171C1.72154 28.2891 2.63297 28.6667 3.58333 28.6667H32.25C33.2004 28.6667 34.1118 28.2891 34.7838 27.6171C35.4558 26.9451 35.8333 26.0337 35.8333 25.0833V3.58333C35.8333 2.63297 35.4558 1.72154 34.7838 1.04953C34.1118 0.377529 33.2004 0 32.25 0Z" fill="#E2DADA"/>
</svg>
