<svg width="50" height="50" viewBox="0 0 50 50" fill="none" xmlns="http://www.w3.org/2000/svg">
<path d="M2.01672 18.8063L18.0938 28.0312L18.0813 30.7812L8.93547 25.5354L3.17922 28.8062L18.0709 37.3896L18.0813 40.0354L2.12714 30.8583C2.16881 31.9333 3.14381 35.2458 5.00839 37.8104C6.90422 40.4083 9.06256 41.5104 9.06256 41.5104L23.8084 50V24.6854L2.03131 12.1792L2.01672 18.8063ZM47.9834 10.8896L31.7084 1.50625C31.7084 1.50625 29.1292 0 25.0167 0C20.7334 0 18.2501 1.55417 18.2501 1.55417L3.17506 10.1792L26.1105 23.3625V50L41.2042 41.3833C41.2042 41.3833 43.9021 39.8938 45.9521 36.3542C47.7584 33.2375 47.9834 30.2229 47.9834 30.2229V10.8896ZM23.4396 15.225C23.4396 15.225 26.8042 14.6042 29.648 16.2458L34.1709 18.85C34.1709 18.85 34.1771 21.1354 34.1771 24.55C34.1771 27.2854 31.8605 30.1208 31.8605 30.1208L31.8646 20.0875L23.4396 15.225ZM36.7771 37.2292L31.8646 40.0479V37.4042L35.6876 35.2167C39.3292 32.5917 39.9313 28.7229 39.9313 27.3812L39.9167 15.4958L29.4876 9.49375C29.4876 9.49375 27.9042 8.45417 25.0521 8.45417C22.2042 8.45417 20.6501 9.41458 20.6501 9.41458L16.9876 11.5208L14.6751 10.1854L19.7355 7.29167C19.7355 7.29167 21.7146 6.19375 25.0355 6.19375C28.0813 6.19375 30.4521 7.38333 30.4521 7.38333L42.2292 14.1875L42.2146 27.1583C42.298 29.1521 41.3688 34.0229 36.7771 37.2292Z" fill="white"/>
</svg>
